# Created by FreeCAD <http://www.freecadweb.org>
v 4922.132324 17.500000 -30.575729
v 4930.018555 17.500000 -34.135429
v 4930.018555 -17.500000 -34.135429
v 4922.132324 -17.500000 -30.575729
v 4915.374023 17.500000 -25.172308
v 4915.374023 -17.500000 -25.172308
v 4921.602051 17.500000 28.177103
v 4914.942871 -17.500000 22.652655
v 4921.602051 -17.500000 28.177103
v 4914.942871 17.500000 22.652655
v 4929.423340 17.500000 31.878483
v 4929.423340 -17.500000 31.878483
v 4937.917969 17.500000 33.525787
v 4937.917969 -17.500000 33.525787
v 4946.555664 17.500000 33.016212
v 4946.555664 -17.500000 33.016212
v 4954.797363 17.500000 30.381557
v 4954.797363 -17.500000 30.381557
v 4962.128906 17.500000 25.786251
v 4962.128906 -17.500000 25.786251
v 4968.092773 17.500000 19.517092
v 4968.092773 -17.500000 19.517092
v 4972.316895 17.500000 11.965340
v 4972.316895 -17.500000 11.965340
v 4974.537109 17.500000 3.602303
v 4974.537109 -17.500000 3.602303
v 4974.615234 17.500000 -5.050078
v 4974.615234 -17.500000 -5.050078
v 4972.545898 17.500000 -13.451803
v 4972.545898 -17.500000 -13.451803
v 4968.458984 17.500000 -21.078518
v 4968.458984 -17.500000 -21.078518
v 4962.609375 17.500000 -27.454235
v 4962.609375 -17.500000 -27.454235
v 4955.361816 17.500000 -32.181042
v 4955.361816 -17.500000 -32.181042
v 4947.168945 17.500000 -34.963936
v 4947.168945 -17.500000 -34.963936
v 4938.541504 17.500000 -35.629242
v 4938.541504 -17.500000 -35.629242
v 4914.547852 17.500000 22.369730
v 4914.547852 -17.500000 22.369730
v 4864.509277 17.500000 18.271854
v 4864.509277 -17.500000 18.271854
v 4734.095215 17.500000 17.049467
v 4734.095215 -17.500000 17.049467
v 4734.095215 17.500000 -18.860973
v 4734.095215 -17.500000 -18.860973
v 4940.000000 -55.000000 -16.000000
v 4936.117676 -55.000000 -15.488888
v 4936.117676 55.000000 -15.488888
v 4940.000000 55.000000 -16.000000
v 4943.882324 -55.000000 -15.488888
v 4943.882324 55.000000 -15.488888
v 4955.000000 -55.000000 -1.000000
v 4955.000000 55.000000 -1.000000
v 4954.488770 55.000000 2.882286
v 4947.500000 -55.000000 -13.990381
v 4954.488770 -55.000000 2.882286
v 4952.990234 55.000000 6.500000
v 4947.500000 55.000000 -13.990381
v 4950.606445 -55.000000 -11.606602
v 4950.606445 55.000000 -11.606602
v 4952.990234 -55.000000 6.500000
v 4950.606445 -55.000000 9.606602
v 4950.606445 55.000000 9.606602
v 4952.990234 -55.000000 -8.500000
v 4952.990234 55.000000 -8.500000
v 4954.488770 55.000000 -4.882286
v 4954.488770 -55.000000 -4.882286
v 4947.500000 -55.000000 11.990381
v 4947.500000 55.000000 11.990381
v 4943.882324 55.000000 13.488888
v 4943.882324 -55.000000 13.488888
v 4940.000000 -55.000000 14.000000
v 4940.000000 55.000000 14.000000
v 4936.117676 -55.000000 13.488888
v 4936.117676 55.000000 13.488888
v 4932.500000 -55.000000 11.990381
v 4932.500000 55.000000 11.990381
v 4929.393555 -55.000000 9.606602
v 4929.393555 55.000000 9.606602
v 4927.009766 -55.000000 6.500000
v 4927.009766 55.000000 6.500000
v 4925.511230 -55.000000 2.882286
v 4925.511230 55.000000 2.882286
v 4925.000000 -55.000000 -1.000000
v 4925.000000 55.000000 -1.000000
v 4925.511230 -55.000000 -4.882286
v 4925.511230 55.000000 -4.882286
v 4927.009766 -55.000000 -8.500000
v 4927.009766 55.000000 -8.500000
v 4929.393555 -55.000000 -11.606602
v 4929.393555 55.000000 -11.606602
v 4932.500000 -55.000000 -13.990381
v 4932.500000 55.000000 -13.990381
vn -0.411412 0.000000 -0.911450
vn -0.411412 -0.000000 -0.911450
vn -0.624468 -0.000000 -0.781050
vn -0.624468 0.000000 -0.781050
vn -0.638487 0.000000 0.769633
vn -0.638487 0.000000 0.769633
vn -0.427762 0.000000 0.903892
vn -0.427762 0.000000 0.903892
vn -0.190376 0.000000 0.981711
vn -0.190376 0.000000 0.981711
vn 0.058892 0.000000 0.998264
vn 0.058892 0.000000 0.998264
vn 0.304494 0.000000 0.952514
vn 0.304494 0.000000 0.952514
vn 0.531087 0.000000 0.847318
vn 0.531087 0.000000 0.847318
vn 0.724528 0.000000 0.689245
vn 0.724528 0.000000 0.689245
vn 0.872745 0.000000 0.488176
vn 0.872745 0.000000 0.488176
vn 0.966520 0.000000 0.256591
vn 0.966520 0.000000 0.256591
vn 0.999959 0.000000 0.009029
vn 0.999959 0.000000 0.009029
vn 0.970982 0.000000 -0.239152
vn 0.970982 0.000000 -0.239152
vn 0.881423 0.000000 -0.472327
vn 0.881423 0.000000 -0.472327
vn 0.736855 0.000000 -0.676051
vn 0.736855 0.000000 -0.676051
vn 0.546279 0.000000 -0.837603
vn 0.546279 0.000000 -0.837603
vn 0.321625 0.000000 -0.946867
vn 0.321625 0.000000 -0.946867
vn 0.076887 0.000000 -0.997040
vn 0.076887 0.000000 -0.997040
vn -0.172638 0.000000 -0.984985
vn -0.172638 -0.000000 -0.984985
vn -0.582284 0.000000 0.812985
vn -0.582284 0.000000 0.812985
vn -0.081621 0.000000 0.996663
vn -0.081621 0.000000 0.996663
vn -0.009373 0.000000 0.999956
vn -0.009373 0.000000 0.999956
vn -1.000000 -0.000000 -0.000000
vn -1.000000 0.000000 0.000000
vn -0.034795 -0.000000 -0.999394
vn -0.034795 0.000000 -0.999394
vn 0.000000 -1.000000 0.000000
vn 0.000000 -1.000000 0.000000
vn 0.000000 -1.000000 0.000000
vn -0.000000 -1.000000 0.000000
vn 0.000000 -1.000000 0.000000
vn 0.000000 -1.000000 0.000000
vn 0.000000 -1.000000 0.000000
vn 0.000000 -1.000000 0.000000
vn 0.000000 -1.000000 0.000000
vn 0.000000 -1.000000 0.000000
vn 0.000000 -1.000000 0.000000
vn 0.000000 -1.000000 0.000000
vn -0.000000 -1.000000 0.000000
vn 0.000000 -1.000000 0.000000
vn 0.000000 -1.000000 0.000000
vn 0.000000 -1.000000 0.000000
vn -0.000000 -1.000000 0.000000
vn 0.000000 -1.000000 0.000000
vn -0.000000 -1.000000 0.000000
vn 0.000000 -1.000000 0.000000
vn 0.000000 -1.000000 0.000000
vn -0.000000 -1.000000 0.000000
vn -0.000000 1.000000 0.000000
vn -0.000000 1.000000 0.000000
vn 0.000000 1.000000 0.000000
vn 0.000000 1.000000 0.000000
vn 0.000000 1.000000 0.000000
vn 0.000000 1.000000 0.000000
vn 0.000000 1.000000 0.000000
vn 0.000000 1.000000 0.000000
vn 0.000000 1.000000 0.000000
vn 0.000000 1.000000 0.000000
vn 0.000000 1.000000 0.000000
vn 0.000000 1.000000 0.000000
vn 0.000000 1.000000 0.000000
vn 0.000000 1.000000 0.000000
vn 0.000000 1.000000 0.000000
vn 0.000000 1.000000 0.000000
vn 0.000000 1.000000 0.000000
vn 0.000000 1.000000 -0.000000
vn 0.000000 1.000000 0.000000
vn 0.000000 1.000000 0.000000
vn 0.000000 1.000000 0.000000
vn 0.000000 1.000000 0.000000
vn -0.130525 0.000000 -0.991445
vn -0.130525 0.000000 -0.991445
vn 0.130525 0.000000 -0.991445
vn 0.130525 0.000000 -0.991445
vn 0.991441 -0.000000 0.130556
vn 0.382687 0.000000 -0.923878
vn 0.923877 -0.000000 0.382690
vn 0.382687 0.000000 -0.923878
vn 0.991441 -0.000000 0.130556
vn 0.608781 0.000000 -0.793338
vn 0.608781 0.000000 -0.793338
vn 0.923877 -0.000000 0.382690
vn 0.793352 -0.000000 0.608763
vn 0.793352 0.000000 -0.608763
vn 0.793352 0.000000 -0.608763
vn 0.793352 0.000000 0.608763
vn 0.923877 0.000000 -0.382690
vn 0.991441 0.000000 -0.130556
vn 0.923877 0.000000 -0.382690
vn 0.608781 -0.000000 0.793338
vn 0.991441 0.000000 -0.130556
vn 0.382687 -0.000000 0.923878
vn 0.608781 0.000000 0.793338
vn 0.382687 -0.000000 0.923878
vn 0.130525 -0.000000 0.991445
vn 0.130525 0.000000 0.991445
vn -0.130525 0.000000 0.991445
vn -0.130525 0.000000 0.991445
vn -0.382687 0.000000 0.923878
vn -0.382687 0.000000 0.923878
vn -0.608781 0.000000 0.793338
vn -0.608781 0.000000 0.793338
vn -0.793352 0.000000 0.608763
vn -0.793352 0.000000 0.608763
vn -0.923877 0.000000 0.382690
vn -0.923877 0.000000 0.382690
vn -0.991441 0.000000 0.130556
vn -0.991441 0.000000 0.130556
vn -0.991441 0.000000 -0.130556
vn -0.991441 0.000000 -0.130556
vn -0.923877 0.000000 -0.382690
vn -0.923877 0.000000 -0.382690
vn -0.793352 0.000000 -0.608763
vn -0.793352 0.000000 -0.608763
vn -0.608781 0.000000 -0.793338
vn -0.608781 0.000000 -0.793338
vn -0.382687 0.000000 -0.923878
vn -0.382687 0.000000 -0.923878
vn 0.000000 -1.000000 0.000000
vn 0.000000 -1.000000 0.000000
vn 0.000000 -1.000000 0.000000
vn 0.000000 -1.000000 0.000000
vn -0.000000 -1.000000 0.000000
vn -0.000000 -1.000000 0.000000
vn 0.000000 -1.000000 0.000000
vn 0.000000 -1.000000 0.000000
vn 0.000000 -1.000000 0.000000
vn 0.000000 -1.000000 0.000000
vn 0.000000 -1.000000 0.000000
vn 0.000000 -1.000000 0.000000
vn 0.000000 -1.000000 0.000000
vn 0.000000 -1.000000 0.000000
vn 0.000000 -1.000000 0.000000
vn 0.000000 -1.000000 0.000000
vn 0.000000 -1.000000 0.000000
vn 0.000000 -1.000000 -0.000000
vn 0.000000 -1.000000 0.000000
vn -0.000000 -1.000000 0.000000
vn 0.000000 -1.000000 0.000000
vn -0.000000 -1.000000 -0.000000
vn -0.000000 1.000000 -0.000000
vn -0.000000 1.000000 -0.000000
vn -0.000000 1.000000 -0.000000
vn 0.000000 1.000000 0.000000
vn 0.000000 1.000000 0.000000
vn -0.000000 1.000000 0.000000
vn 0.000000 1.000000 0.000000
vn -0.000000 1.000000 0.000000
vn -0.000000 1.000000 0.000000
vn -0.000000 1.000000 0.000000
vn 0.000000 1.000000 0.000000
vn -0.000000 1.000000 0.000000
vn -0.000000 1.000000 0.000000
vn -0.000000 1.000000 0.000000
vn 0.000000 1.000000 0.000000
vn 0.000000 1.000000 0.000000
vn 0.000000 1.000000 0.000000
vn 0.000000 1.000000 0.000000
vn 0.000000 1.000000 0.000000
vn 0.000000 1.000000 0.000000
vn 0.000000 1.000000 0.000000
vn 0.000000 1.000000 0.000000
f 1//1 2//1 3//1
f 1//2 3//2 4//2
f 5//3 4//3 6//3
f 5//4 1//4 4//4
f 7//5 8//5 9//5
f 7//6 10//6 8//6
f 11//7 9//7 12//7
f 11//8 7//8 9//8
f 13//9 12//9 14//9
f 13//10 11//10 12//10
f 15//11 14//11 16//11
f 15//12 13//12 14//12
f 17//13 16//13 18//13
f 17//14 15//14 16//14
f 19//15 18//15 20//15
f 19//16 17//16 18//16
f 21//17 20//17 22//17
f 21//18 19//18 20//18
f 23//19 22//19 24//19
f 23//20 21//20 22//20
f 25//21 24//21 26//21
f 25//22 23//22 24//22
f 27//23 26//23 28//23
f 27//24 25//24 26//24
f 29//25 28//25 30//25
f 29//26 27//26 28//26
f 31//27 30//27 32//27
f 31//28 29//28 30//28
f 33//29 32//29 34//29
f 33//30 31//30 32//30
f 35//31 33//31 34//31
f 35//32 34//32 36//32
f 37//33 35//33 36//33
f 37//34 36//34 38//34
f 39//35 37//35 38//35
f 39//36 38//36 40//36
f 2//37 39//37 40//37
f 2//38 40//38 3//38
f 10//39 41//39 8//39
f 8//40 41//40 42//40
f 42//41 43//41 44//41
f 41//42 43//42 42//42
f 44//43 45//43 46//43
f 43//44 45//44 44//44
f 45//45 47//45 46//45
f 46//46 47//46 48//46
f 47//47 6//47 48//47
f 47//48 5//48 6//48
f 44//49 46//49 48//49
f 14//50 12//50 9//50
f 16//51 9//51 8//51
f 16//52 14//52 9//52
f 6//53 8//53 42//53
f 6//54 42//54 44//54
f 6//55 44//55 48//55
f 22//56 18//56 16//56
f 22//57 20//57 18//57
f 24//58 16//58 8//58
f 24//59 22//59 16//59
f 26//60 24//60 8//60
f 38//61 3//61 40//61
f 38//62 4//62 3//62
f 30//63 28//63 26//63
f 30//64 26//64 8//64
f 36//65 4//65 38//65
f 32//66 6//66 4//66
f 32//67 8//67 6//67
f 32//68 30//68 8//68
f 32//69 4//69 36//69
f 34//70 32//70 36//70
f 45//71 43//71 47//71
f 11//72 13//72 7//72
f 13//73 15//73 7//73
f 17//74 19//74 15//74
f 10//75 5//75 41//75
f 41//76 5//76 43//76
f 43//77 5//77 47//77
f 7//78 21//78 10//78
f 19//79 21//79 15//79
f 15//80 21//80 7//80
f 10//81 1//81 5//81
f 21//82 23//82 10//82
f 23//83 25//83 10//83
f 10//84 27//84 1//84
f 25//85 27//85 10//85
f 2//86 37//86 39//86
f 1//87 37//87 2//87
f 29//88 35//88 27//88
f 1//89 35//89 37//89
f 27//90 35//90 1//90
f 29//91 31//91 35//91
f 31//92 33//92 35//92
f 49//93 50//93 51//93
f 49//94 51//94 52//94
f 53//95 49//95 52//95
f 53//96 52//96 54//96
f 55//97 56//97 57//97
f 58//98 53//98 54//98
f 59//99 57//99 60//99
f 58//100 54//100 61//100
f 59//101 55//101 57//101
f 62//102 58//102 61//102
f 62//103 61//103 63//103
f 64//104 59//104 60//104
f 65//105 60//105 66//105
f 67//106 62//106 63//106
f 67//107 63//107 68//107
f 65//108 64//108 60//108
f 67//109 68//109 69//109
f 70//110 69//110 56//110
f 70//111 67//111 69//111
f 71//112 66//112 72//112
f 55//113 70//113 56//113
f 71//114 72//114 73//114
f 71//115 65//115 66//115
f 74//116 71//116 73//116
f 75//117 73//117 76//117
f 75//118 74//118 73//118
f 77//119 76//119 78//119
f 77//120 75//120 76//120
f 79//121 78//121 80//121
f 79//122 77//122 78//122
f 81//123 80//123 82//123
f 81//124 79//124 80//124
f 83//125 82//125 84//125
f 83//126 81//126 82//126
f 85//127 84//127 86//127
f 85//128 83//128 84//128
f 87//129 85//129 86//129
f 87//130 86//130 88//130
f 89//131 87//131 88//131
f 89//132 88//132 90//132
f 91//133 89//133 90//133
f 91//134 90//134 92//134
f 93//135 91//135 92//135
f 93//136 92//136 94//136
f 95//137 93//137 94//137
f 95//138 94//138 96//138
f 50//139 95//139 96//139
f 50//140 96//140 51//140
f 89//141 91//141 93//141
f 87//142 93//142 95//142
f 87//143 89//143 93//143
f 49//144 95//144 50//144
f 53//145 95//145 49//145
f 58//146 95//146 53//146
f 67//147 58//147 62//147
f 79//148 81//148 83//148
f 79//149 83//149 85//149
f 79//150 85//150 87//150
f 55//151 67//151 70//151
f 75//152 77//152 79//152
f 75//153 87//153 95//153
f 75//154 79//154 87//154
f 71//155 74//155 75//155
f 64//156 55//156 59//156
f 64//157 95//157 58//157
f 64//158 58//158 67//158
f 64//159 67//159 55//159
f 64//160 75//160 95//160
f 65//161 71//161 75//161
f 65//162 75//162 64//162
f 92//163 90//163 94//163
f 94//164 88//164 96//164
f 90//165 88//165 94//165
f 96//166 52//166 51//166
f 96//167 54//167 52//167
f 96//168 61//168 54//168
f 61//169 68//169 63//169
f 82//170 80//170 84//170
f 84//171 80//171 86//171
f 86//172 80//172 88//172
f 68//173 56//173 69//173
f 78//174 76//174 80//174
f 88//175 76//175 96//175
f 80//176 76//176 88//176
f 73//177 72//177 76//177
f 56//178 60//178 57//178
f 96//179 60//179 61//179
f 61//180 60//180 68//180
f 76//181 60//181 96//181
f 68//182 60//182 56//182
f 72//183 66//183 76//183
f 76//184 66//184 60//184
