{
    "accessors" : [
        {
            "bufferView" : 0,
            "componentType" : 5121,
            "count" : 522,
            "max" : [
                187
            ],
            "min" : [
                0
            ],
            "type" : "SCALAR"
        },
        {
            "bufferView" : 1,
            "componentType" : 5126,
            "count" : 188,
            "max" : [
                4974.615234375,
                33.525787353515625,
                55.0
            ],
            "min" : [
                4498.1552734375,
                -35.629241943359375,
                -55.0
            ],
            "type" : "VEC3"
        },
        {
            "bufferView" : 2,
            "componentType" : 5126,
            "count" : 188,
            "max" : [
                1.0,
                1.0,
                1.0
            ],
            "min" : [
                -1.0,
                -1.0,
                -1.0
            ],
            "type" : "VEC3"
        }
    ],
    "asset" : {
        "generator" : "Khronos Blender glTF 2.0 exporter",
        "version" : "2.0"
    },
    "bufferViews" : [
        {
            "buffer" : 0,
            "byteLength" : 522,
            "byteOffset" : 0,
            "target" : 34963
        },
        {
            "buffer" : 0,
            "byteLength" : 2256,
            "byteOffset" : 524,
            "target" : 34962
        },
        {
            "buffer" : 0,
            "byteLength" : 2256,
            "byteOffset" : 2780,
            "target" : 34962
        }
    ],
    "buffers" : [
        {
            "byteLength" : 5036,
            "uri" : "piston.bin"
        }
    ],
    "meshes" : [
        {
            "name" : "grid_piston",
            "primitives" : [
                {
                    "attributes" : {
                        "NORMAL" : 2,
                        "POSITION" : 1
                    },
                    "indices" : 0
                }
            ]
        }
    ],
    "nodes" : [
        {
            "mesh" : 0,
            "name" : "grid_piston",
            "rotation" : [
                0.7071068286895752,
                0.0,
                -0.0,
                0.7071068286895752
            ],
            "scale" : [
                0.0010000000474974513,
                0.0010000000474974513,
                0.0010000000474974513
            ]
        }
    ],
    "scene" : 0,
    "scenes" : [
        {
            "name" : "Scene",
            "nodes" : [
                0
            ]
        }
    ]
}
